<?xml version="1.0" encoding="utf-8"?>
<!-- Generator: Adobe Illustrator 16.0.0, SVG Export Plug-In . SVG Version: 6.00 Build 0)  -->
<!DOCTYPE svg PUBLIC "-//W3C//DTD SVG 1.1//EN" "http://www.w3.org/Graphics/SVG/1.1/DTD/svg11.dtd">
<svg version="1.1" xmlns="http://www.w3.org/2000/svg" xmlns:xlink="http://www.w3.org/1999/xlink" x="0px" y="0px"
	 width="136.306px" height="252.289px" viewBox="0 0 136.306 252.289" enable-background="new 0 0 136.306 252.289"
	 xml:space="preserve">
<g id="Layer_1">
	<path display="none" d="M-283.14,187.121c-54.377,0-98.616-44.24-98.616-98.617c0-54.377,44.239-98.617,98.616-98.617
		c54.378,0,98.617,44.239,98.617,98.617C-184.523,142.88-228.762,187.121-283.14,187.121z M-283.14-0.113
		c-48.863,0-88.616,39.753-88.616,88.617s39.753,88.617,88.616,88.617c48.863,0,88.617-39.754,88.617-88.617
		S-234.277-0.113-283.14-0.113z"/>
</g>
<g id="Pin">
	<g display="none">
		<g display="inline">
			<g>
				<path d="M-247.263,3.616c-0.097,0.114-0.19,0.229-0.288,0.342c-1.666,1.93-3.492,3.698-5.398,5.385
					c-0.027,0.023-0.059,0.047-0.093,0.074c0.009,0,0.018,0,0.026,0c14.623,0,26.52,11.897,26.52,26.52
					c0,14.624-11.896,26.52-26.52,26.52c-14.624,0-26.521-11.896-26.521-26.52c0-14.599,11.857-26.479,26.448-26.518
					c-1.47-1.297-2.889-2.622-4.219-4.039c-0.533-0.568-1.05-1.149-1.543-1.749c-15.33,2.762-27.002,16.192-27.002,32.306
					c0,18.106,14.73,32.836,32.836,32.836c18.104,0,32.835-14.73,32.835-32.836C-220.181,19.794-231.894,6.345-247.263,3.616z"/>
			</g>
		</g>
		<path display="inline" fill-rule="evenodd" clip-rule="evenodd" d="M-253.057,6.453c-1.193-1.051-2.343-2.125-3.422-3.275
			c-0.933-0.994-1.816-2.027-2.532-3.194c-0.45-0.734-0.821-1.503-0.946-2.368c-0.155-1.077,0.025-2.072,0.766-2.912
			c0.5-0.566,1.15-0.875,1.873-1.046c0.804-0.19,1.59-0.141,2.347,0.198c0.517,0.231,0.9,0.629,1.238,1.067
			c0.221,0.288,0.402,0.605,0.6,0.909c0.028,0.043,0.053,0.087,0.092,0.155c0.046-0.075,0.084-0.133,0.118-0.193
			c0.356-0.602,0.753-1.174,1.317-1.603c0.623-0.474,1.347-0.639,2.109-0.628c0.819,0.012,1.577,0.253,2.241,0.739
			c0.786,0.574,1.158,1.378,1.224,2.333c0.066,0.961-0.277,1.822-0.674,2.67c-0.479,1.019-1.172,1.883-1.9,2.726
			c-1.344,1.557-2.816,2.983-4.357,4.345C-252.989,6.401-253.019,6.422-253.057,6.453z"/>
		<path display="inline" d="M-253.016,218.38c-21.36,0-38.336-42.965-48.816-79.009c-11.944-41.078-19.337-86.553-19.337-105.126
			c0-37.58,30.573-68.153,68.153-68.153c37.579,0,68.152,30.573,68.152,68.153c0,18.574-7.393,64.048-19.337,105.126
			C-214.68,175.416-231.656,218.38-253.016,218.38z M-253.016-28.975c-34.86,0-63.22,28.36-63.22,63.22
			c0,18.236,7.318,63.087,19.141,103.75c13.942,47.951,30.009,75.452,44.079,75.452s30.136-27.501,44.078-75.452
			c11.823-40.662,19.142-85.514,19.142-103.75C-189.796-0.615-218.156-28.975-253.016-28.975z"/>
	</g>
	<g>
		<g>
			<path fill="#1D71B8" d="M73.906,37.524c-0.097,0.114-0.19,0.229-0.288,0.342c-1.666,1.93-3.492,3.698-5.398,5.385
				c-0.027,0.023-0.059,0.047-0.093,0.074c0.009,0,0.018,0,0.026,0c14.623,0,26.52,11.897,26.52,26.52
				c0,14.624-11.896,26.52-26.52,26.52c-14.624,0-26.521-11.896-26.521-26.52c0-14.599,11.857-26.479,26.448-26.518
				c-1.47-1.297-2.889-2.622-4.219-4.039c-0.533-0.568-1.05-1.149-1.543-1.749C46.989,40.3,35.317,53.731,35.317,69.845
				c0,18.106,14.73,32.836,32.836,32.836c18.104,0,32.835-14.73,32.835-32.836C100.988,53.703,89.276,40.253,73.906,37.524z"/>
		</g>
	</g>
	<path fill-rule="evenodd" clip-rule="evenodd" fill="#1D71B8" d="M68.112,39.361c-1.193-1.051-2.343-2.125-3.422-3.275
		c-0.933-0.994-1.816-2.027-2.532-3.194c-0.45-0.734-0.821-1.503-0.946-2.368c-0.155-1.077,0.025-2.072,0.766-2.912
		c0.5-0.566,1.15-0.875,1.873-1.046c0.804-0.19,1.59-0.141,2.347,0.198c0.517,0.231,0.9,0.629,1.238,1.067
		c0.221,0.288,0.402,0.605,0.6,0.909c0.028,0.043,0.053,0.087,0.092,0.155c0.046-0.075,0.084-0.133,0.118-0.193
		c0.356-0.602,0.753-1.174,1.317-1.603c0.623-0.474,1.347-0.639,2.109-0.628c0.819,0.012,1.577,0.253,2.241,0.739
		c0.786,0.574,1.158,1.378,1.224,2.333c0.066,0.961-0.277,1.822-0.674,2.67c-0.479,1.019-1.172,1.883-1.9,2.726
		c-1.344,1.557-2.816,2.983-4.357,4.345C68.18,39.309,68.15,39.33,68.112,39.361z"/>
	<path fill="#1D71B8" d="M68.153,252.289c-21.36,0-38.336-42.965-48.816-79.009C7.394,132.202,0,86.727,0,68.153
		C0,30.573,30.573,0,68.153,0c37.579,0,68.152,30.573,68.152,68.153c0,18.574-7.393,64.048-19.337,105.126
		C106.489,209.324,89.513,252.289,68.153,252.289z M68.153,4.933c-34.859,0-63.221,28.36-63.221,63.22
		c0,18.236,7.318,63.087,19.142,103.75c13.942,47.951,30.009,75.452,44.079,75.452s30.136-27.501,44.078-75.452
		c11.823-40.662,19.142-85.514,19.142-103.75C131.373,33.293,103.013,4.933,68.153,4.933z"/>
</g>
</svg>
